<?xml version="1.0" standalone="no"?>
<!DOCTYPE svg PUBLIC "-//W3C//DTD SVG 20010904//EN" "http://www.w3.org/TR/2001/REC-SVG-20010904/DTD/svg10.dtd">
<svg version="1.0" xmlns="http://www.w3.org/2000/svg" width="512.000000pt" height="512.000000pt" viewBox="0 0 512.000000 512.000000" preserveAspectRatio="xMidYMid meet">
	<g transform="translate(0.000000,512.000000) scale(0.100000,-0.100000)" fill="#000000" stroke="none">
		<path fill="#209cee" d="M1070 4585 l0 -215 -215 0 -215 0 0 -210 0 -210 -212 -2 -213 -3 -3
-212 -2 -213 215 0 215 0 0 215 0 215 215 0 215 0 0 210 0 210 210 0 210 0 0
-210 0 -210 215 0 215 0 0 -215 0 -215 215 0 215 0 -2 213 -3 212 -212 3 -213
2 0 210 0 210 -215 0 -215 0 0 215 0 215 -210 0 -210 0 0 -215z" />
		<path fill="#209cee" d="M2777 3943 c-4 -3 -7 -100 -7 -215 l0 -208 430 0 430 0 0 -960 0
-960 210 0 210 0 0 960 0 960 -210 0 -210 0 -2 213 -3 212 -421 3 c-231 1
-424 -1 -427 -5z" />
		<path fill="#209cee" d="M1070 2560 l0 -960 210 0 210 0 2 -212 3 -213 425 0 425 0 3 213 2
212 -430 0 -430 0 0 960 0 960 -210 0 -210 0 0 -960z" />
		<path fill="#209cee" d="M2772 1388 l3 -213 213 -3 212 -2 0 -210 0 -210 215 0 215 0 0 -215
0 -215 210 0 210 0 0 215 0 215 215 0 215 0 0 210 0 210 213 2 212 3 3 213 2
212 -215 0 -215 0 0 -215 0 -215 -215 0 -215 0 0 -210 0 -210 -210 0 -210 0 0
210 0 210 -215 0 -215 0 0 215 0 215 -215 0 -215 0 2 -212z" />
	</g>
</svg>
